<?xml version="1.0" encoding="UTF-8" standalone="no"?>
<svg
   height="16"
   viewBox="0 0 16 16"
   width="16"
   version="1.1"
   id="svg20"
   sodipodi:docname="sun.svg"
   inkscape:version="1.2.2 (732a01da63, 2022-12-09, custom)"
   xmlns:inkscape="http://www.inkscape.org/namespaces/inkscape"
   xmlns:sodipodi="http://sodipodi.sourceforge.net/DTD/sodipodi-0.dtd"
   xmlns="http://www.w3.org/2000/svg"
   xmlns:svg="http://www.w3.org/2000/svg">
  <defs
     id="defs24" />
  <sodipodi:namedview
     id="namedview22"
     pagecolor="#ffffff"
     bordercolor="#000000"
     borderopacity="0.25"
     inkscape:showpageshadow="2"
     inkscape:pageopacity="0.0"
     inkscape:pagecheckerboard="0"
     inkscape:deskcolor="#d1d1d1"
     showgrid="false"
     inkscape:zoom="53.125"
     inkscape:cx="4.1788235"
     inkscape:cy="8.0094118"
     inkscape:window-width="1920"
     inkscape:window-height="1016"
     inkscape:window-x="0"
     inkscape:window-y="27"
     inkscape:window-maximized="1"
     inkscape:current-layer="svg20" />
  <path
     d="m7 1v3h2v-3zm-2.5352 2.0508-1.4141 1.4141 1.4141 1.4141 1.4141-1.4141zm7.0703 0-1.4141 1.4141 1.4141 1.4141 1.4141-1.4141zm-3.5352 1.9492c-1.6569 0-3 1.3432-3 3s1.3431 3 3 3 3-1.3432 3-3-1.3431-3-3-3zm-7 2v2h3v-2zm11 0v2h3v-2zm-7.5352 3.1211-1.4141 1.4141 1.4141 1.4141 1.4141-1.4141zm7.0703 0-1.4141 1.4141 1.4141 1.4141 1.4141-1.4141zm-4.5352 1.8789v3h2v-3z"
     fill="#fc7f7f"
     id="path18" />
  <path
     style="fill:#ff7f2a;stroke:#00a7ff;stroke-width:0.0188235"
     d="M 7.7270588,10.981228 C 7.3788599,10.943956 7.0024907,10.835643 6.6917647,10.683287 5.8208498,10.256257 5.2312674,9.4716034 5.0503771,8.4988235 c -0.043184,-0.2322323 -0.043184,-0.7654147 0,-0.997647 C 5.168243,6.867325 5.4464167,6.3334794 5.889948,5.889948 6.333232,5.4466641 6.8669212,5.1680593 7.4967384,5.0511464 7.7335614,5.0071849 8.2643561,5.0067775 8.4988235,5.0503771 9.132675,5.168243 9.6665207,5.4464167 10.110052,5.889948 c 0.443668,0.4436681 0.722753,0.9794194 0.839326,1.6112285 0.04277,0.2317809 0.04277,0.7658661 0,0.997647 -0.116573,0.6318092 -0.395658,1.1675605 -0.839326,1.6112285 -0.4419129,0.441913 -0.9834227,0.724692 -1.602365,0.836764 -0.1585792,0.02871 -0.6368817,0.0498 -0.7806282,0.03441 z"
     id="path2328" />
  <path
     style="fill:#ff7f2a;stroke:#00a7ff;stroke-width:0.0188235"
     d="M 7.0023529,13.496471 V 12.009412 H 8 8.9976471 v 1.487059 1.487058 H 8 7.0023529 Z"
     id="path2330" />
  <path
     style="fill:#ff6600;stroke:#00a7ff;stroke-width:0.0188235"
     d="m 10.832911,12.235263 -0.696313,-0.696503 0.701113,-0.701113 0.701113,-0.701113 0.696501,0.696502 0.696502,0.696501 -0.701302,0.701115 -0.701302,0.701115 z"
     id="path2332" />
  <path
     style="fill:#ff7f2a;stroke:#00a7ff;stroke-width:0.0188235"
     d="M 12.009412,8 V 7.0023529 h 1.487059 1.487058 V 8 8.9976471 h -1.487058 -1.487059 z"
     id="path2334" />
  <path
     style="fill:#ff6600;stroke:#00a7ff;stroke-width:0.0188235"
     d="m 3.7693477,12.230525 -0.7011149,-0.701302 0.6965037,-0.696312 0.6965038,-0.696313 0.701113,0.701113 0.7011129,0.701113 -0.6965019,0.696501 -0.6965018,0.696502 z"
     id="path2336" />
  <path
     style="fill:#ff7f2a;stroke:#00a7ff;stroke-width:0.0188235"
     d="M 1.0164706,8 V 7.0023529 H 2.5035294 3.9905882 V 8 8.9976471 H 2.5035294 1.0164706 Z"
     id="path2338" />
  <path
     style="fill:#ff6600;stroke:#00a7ff;stroke-width:0.0188235"
     d="M 3.7599046,5.1622588 3.0682353,4.4704 3.7695059,3.7693164 4.4707765,3.0682328 5.1670575,3.7647046 5.8633385,4.4611765 5.1670588,5.1576471 C 4.7841049,5.5407059 4.4664579,5.8541176 4.4611765,5.8541176 c -0.00528,0 -0.3208538,-0.3113364 -0.7012719,-0.6918588 z"
     id="path2340" />
  <path
     style="fill:#ff7f2a;stroke:#00a7ff;stroke-width:0.0188235"
     d="M 7.0023529,2.5035294 V 1.0164706 H 8 8.9976471 V 2.5035294 3.9905882 H 8 7.0023529 Z"
     id="path2342" />
  <path
     style="fill:#ff6600;stroke:#00a7ff;stroke-width:0.0188235"
     d="m 10.832941,5.1576471 -0.69628,-0.6964706 0.696281,-0.6964719 0.696281,-0.6964718 0.701271,0.7010836 0.701271,0.7010836 -0.69167,0.6918588 c -0.380418,0.3805224 -0.69599,0.6918588 -0.701271,0.6918588 -0.0053,0 -0.322929,-0.3134117 -0.705883,-0.6964705 z"
     id="path2344" />
</svg>
